<svg id="Layer_1" data-name="Layer 1" xmlns="http://www.w3.org/2000/svg" xmlns:xlink="http://www.w3.org/1999/xlink" viewBox="0 0 18 18"><defs><style>.cls-1{fill:url(#linear-gradient);}.cls-2{fill:#fff;}</style><linearGradient id="linear-gradient" x1="11.63" y1="88.12" x2="6.37" y2="105.34" gradientTransform="translate(0 -87.73)" gradientUnits="userSpaceOnUse"><stop offset="0" stop-color="#d1258e"/><stop offset="0.27" stop-color="#b91c88"/><stop offset="0.83" stop-color="#732369"/><stop offset="1" stop-color="#601f5f"/></linearGradient></defs><title>wp-raychat</title><circle class="cls-1" cx="9" cy="9" r="9"/><path class="cls-2" d="M8.78,9.4a.36.36,0,0,1,0-.51.35.35,0,0,1,.5,0,3,3,0,0,0,3.9.29,4.33,4.33,0,0,0,0-2,.69.69,0,0,1-.91.36.69.69,0,1,1,.55-1.27h0a4.26,4.26,0,1,0-4.4,6.21l-.4.89c-.22.76.24,1,.86.53l3-2.42a4.12,4.12,0,0,0,1-1.31A3.7,3.7,0,0,1,8.78,9.4ZM9.83,6.26a.7.7,0,1,1-.69.7h0A.69.69,0,0,1,9.83,6.26Z"/></svg>